<svg xmlns="http://www.w3.org/2000/svg" width="26" height="26" viewBox="0 0 26 26">
    <g fill="none" fill-rule="evenodd">
        <path fill="#9A9898" fill-rule="nonzero" d="M25.967 13.271a.772.772 0 0 0-.054-.098l-2.6-3.466a.433.433 0 0 0-.346-.174h-3.034v-1.3a.891.891 0 0 0-.03-.15.855.855 0 0 0-.08-.13.87.87 0 0 0-.059-.062l-5.633-4.334a.433.433 0 0 0-.264-.09h-.434V2.6H16.9V0h-4.333v3.467h-.434a.433.433 0 0 0-.264.09L6.236 7.89a.87.87 0 0 0-.06.063.855.855 0 0 0-.079.13.891.891 0 0 0-.03.15v1.3H3.033a.433.433 0 0 0-.346.174l-2.6 3.466a.772.772 0 0 0-.054.098.816.816 0 0 0-.033.162V26h26V13.433a.816.816 0 0 0-.033-.162zM13.433.867h2.6v.866h-2.6V.867zM22.75 10.4L24.7 13h-5.633v-2.6h3.683zM12.28 4.333h1.44L18.225 7.8H7.774l4.507-3.467zM6.934 24.4H.867v-10h6.066v10zm0-11.4H1.3l1.95-2.6h3.683V13zm11.534 12.133h-11v-15h11v15zM6.933 9.667v-1h12.134v1H6.933zm18.2 14.733h-6.066v-10h6.066v10zM7.5 10h11"/>
        <path stroke="#9A9898" d="M10 19h5v6h-5z"/>
        <path stroke="#FFF" d="M7.5 10h11"/>
    </g>
</svg>
