<svg xmlns="http://www.w3.org/2000/svg" width="32" height="18" viewBox="0 0 32 18">
    <g fill="gray" fill-rule="nonzero">
        <path d="M9.557 12.595a2.679 2.679 0 0 0-2.676 2.676c0 1.475 1.2 2.675 2.676 2.675 1.475 0 2.675-1.2 2.675-2.675 0-1.476-1.2-2.676-2.675-2.676zm0 4.135c-.805 0-1.46-.655-1.46-1.46 0-.804.655-1.459 1.46-1.459.804 0 1.459.655 1.459 1.46 0 .804-.655 1.46-1.46 1.46z"/>
        <path d="M27.806.054h-3.117a.608.608 0 1 0 0 1.216h3.117c.972 0 1.793.66 2.038 1.556h-5.155a.608.608 0 0 0-.608.608v5.468c0 .336.272.608.608.608h5.23v5.164h-1.784a2.68 2.68 0 0 0-2.608-2.079 2.68 2.68 0 0 0-2.608 2.079h-.054V3.44a.608.608 0 0 0-.608-.609h-4.865a.608.608 0 0 0-.608.609v4.884H5.494a.608.608 0 1 0 0 1.216h11.29v5.134h-3.102a.608.608 0 1 0 0 1.216h9.242a2.68 2.68 0 0 0 2.603 2.056 2.68 2.68 0 0 0 2.602-2.056h2.398a.608.608 0 0 0 .608-.608V3.383a3.333 3.333 0 0 0-3.33-3.33zm-6.157 8.701h-.385a.608.608 0 1 0 0 1.216h.385v4.703H18V4.048h3.649v4.707zm3.878 7.975c-.805 0-1.46-.655-1.46-1.46 0-.804.655-1.459 1.46-1.459.805 0 1.46.655 1.46 1.46 0 .804-.655 1.46-1.46 1.46zm4.392-8.436h-4.622V4.042h4.622v4.252z"/>
        <path d="M22.687.232a.613.613 0 0 0-.43-.178.613.613 0 0 0-.43.178.613.613 0 0 0-.178.43c0 .16.065.317.178.43.113.113.27.178.43.178.16 0 .317-.065.43-.178a.613.613 0 0 0 .178-.43.613.613 0 0 0-.178-.43zM19.824.054H3.33A3.334 3.334 0 0 0 .037 2.887.605.605 0 0 0 0 3.094v12.188c0 .336.272.608.608.608h4.578a.608.608 0 1 0 0-1.216h-3.97V7.108h2.068a.608.608 0 0 0 .608-.608V3.094a.608.608 0 0 0-.608-.608H1.417A2.115 2.115 0 0 1 3.329 1.27h16.495a.608.608 0 1 0 0-1.216zM2.676 3.702v2.19h-1.46v-2.19h1.46z"/>
        <path d="M3.714 8.502a.613.613 0 0 0-.43-.178.613.613 0 0 0-.43.178.612.612 0 0 0 .43 1.038.61.61 0 0 0 .608-.608.613.613 0 0 0-.178-.43zM12.96 2.486H9.553a.608.608 0 0 0-.608.608V6.5c0 .336.272.608.608.608h3.405a.608.608 0 0 0 .609-.608V3.094a.608.608 0 0 0-.609-.608zm-.609 3.406h-2.189v-2.19h2.19v2.19z"/>
    </g>
</svg>
