<svg xmlns="http://www.w3.org/2000/svg" width="18" height="18" viewBox="0 0 18 18">
    <g fill="#1D38B5" fill-rule="nonzero">
        <path d="M9.818 12.62c0 .711.578 1.29 1.289 1.29h1.514a1.29 1.29 0 0 0 1.288-1.29v-1.513a1.29 1.29 0 0 0-1.288-1.289h-1.514a1.29 1.29 0 0 0-1.289 1.289v1.514zm1.289-1.513h1.514v1.514h-1.514v-1.514z"/>
        <circle cx="13.909" cy="7.364" r="1"/>
        <circle cx="10.636" cy="7.364" r="1"/>
        <path d="M17.297 12.375a.703.703 0 0 0 .703-.703V4.219a2.816 2.816 0 0 0-2.813-2.813h-.914V.703a.703.703 0 1 0-1.406 0v.703H9.668V.703a.703.703 0 1 0-1.406 0v.703H5.098V.703a.703.703 0 1 0-1.407 0v.703h-.878A2.816 2.816 0 0 0 0 4.22v10.968A2.816 2.816 0 0 0 2.813 18h12.374A2.816 2.816 0 0 0 18 15.187a.703.703 0 1 0-1.406 0c0 .776-.631 1.407-1.407 1.407H2.813c-.776 0-1.407-.631-1.407-1.407V4.22c0-.776.631-1.407 1.407-1.407h.878v.704a.703.703 0 1 0 1.407 0v-.704h3.164v.704a.703.703 0 1 0 1.406 0v-.704h3.2v.704a.703.703 0 1 0 1.405 0v-.704h.915c.775 0 1.406.631 1.406 1.407v7.453c0 .388.315.703.703.703z"/>
        <circle cx="4.091" cy="13.909" r="1"/>
        <circle cx="4.091" cy="7.364" r="1"/>
        <circle cx="4.091" cy="10.636" r="1"/>
        <circle cx="7.364" cy="10.636" r="1"/>
        <circle cx="7.364" cy="7.364" r="1"/>
        <circle cx="7.364" cy="13.909" r="1"/>
    </g>
</svg>
