<svg xmlns="http://www.w3.org/2000/svg" width="18" height="26" viewBox="0 0 18 26">
    <g fill="#EB4B0C" fill-rule="nonzero">
        <path d="M17.082 5.076v-.017a.532.532 0 0 0-.056-.201c-.002 0-.002-.002-.003-.003a.497.497 0 0 0-.035-.056l-.01-.013a.511.511 0 0 0-.044-.051L12.348.148a.511.511 0 0 0-.051-.043l-.014-.01a.48.48 0 0 0-.055-.035l-.004-.002a.53.53 0 0 0-.135-.048.537.537 0 0 0-.065-.008L12.007 0 11.99 0H.507A.507.507 0 0 0 0 .507V22.2c0 .28.227.507.507.507h7.63v2.735a.507.507 0 0 0 .777.43l1.93-1.211 1.93 1.21a.508.508 0 0 0 .776-.429v-2.735h3.026c.28 0 .507-.227.507-.507V5.093l-.001-.017zM12.497 1.73l2.855 2.855h-2.855V1.731zm-4.61 13.923c-.035-.097-.093-.255-.095-.32.04-.049.177-.135.261-.189.18-.114.386-.243.534-.445.15-.205.21-.441.265-.65.023-.09.061-.238.094-.293a.634.634 0 0 1 .125-.01c.057 0 .12.004.187.007.077.004.156.008.239.008.182 0 .33-.02.463-.065.233-.078.42-.228.585-.36.09-.074.243-.197.296-.204.058.007.21.13.302.203.164.133.351.283.585.36.133.045.28.066.463.066.083 0 .162-.004.239-.008.067-.003.13-.006.187-.006a.62.62 0 0 1 .125.009c.033.056.07.203.094.294.054.208.115.444.265.649.148.202.353.331.534.445.083.054.22.14.26.19 0 .064-.059.222-.094.32-.076.205-.161.437-.161.695 0 .258.085.491.16.697.036.096.094.255.095.32-.04.048-.177.135-.26.188-.181.114-.386.244-.534.446-.15.205-.211.441-.265.65-.023.09-.062.237-.094.293a.636.636 0 0 1-.125.01c-.057 0-.12-.004-.187-.007-.077-.004-.156-.008-.239-.008-.182 0-.33.02-.463.065-.234.078-.42.228-.585.36-.09.073-.24.193-.3.204-.059-.01-.208-.131-.298-.203-.165-.133-.352-.283-.585-.36a1.437 1.437 0 0 0-.463-.066c-.083 0-.162.004-.24.008a3.85 3.85 0 0 1-.186.006.636.636 0 0 1-.125-.009c-.033-.056-.07-.203-.094-.294-.054-.208-.115-.444-.265-.649-.148-.202-.353-.332-.534-.446a1.51 1.51 0 0 1-.26-.189c0-.064.059-.223.094-.32.076-.205.161-.437.161-.695 0-.259-.086-.491-.16-.697zm4.65 8.872l-1.424-.893a.508.508 0 0 0-.539 0l-1.423.893v-4.56a7.65 7.65 0 0 0 .158-.007c.067-.003.13-.007.188-.007.09 0 .128.009.143.014.06.02.176.113.27.188.236.19.53.428.934.428.403 0 .698-.237.934-.428.094-.075.21-.168.27-.188a.5.5 0 0 1 .143-.013c.057 0 .12.003.188.006.051.003.104.005.158.006v4.561zm1.013-2.833v-2.136c.151-.205.214-.447.267-.653.028-.108.066-.256.101-.303.035-.048.164-.13.258-.189.25-.157.56-.353.683-.724.122-.367-.005-.712-.107-.99-.046-.126-.099-.27-.099-.348 0-.078.053-.22.1-.347.101-.278.228-.624.106-.99-.123-.37-.434-.567-.683-.724-.094-.06-.223-.141-.258-.188-.035-.048-.073-.196-.1-.304-.074-.282-.164-.633-.475-.86-.247-.182-.533-.203-.727-.203-.082 0-.16.004-.237.008-.067.003-.13.007-.188.007a.498.498 0 0 1-.143-.014c-.06-.02-.176-.113-.27-.188-.236-.19-.53-.428-.934-.428-.403 0-.698.237-.935.428-.093.075-.209.168-.27.188a.499.499 0 0 1-.142.014 3.67 3.67 0 0 1-.188-.007c-.077-.004-.156-.008-.238-.008-.193 0-.48.021-.726.202-.31.228-.402.579-.475.861-.028.108-.066.256-.1.303-.035.048-.164.13-.258.189-.25.157-.56.353-.683.724-.122.366.005.712.107.99.046.126.098.27.098.347 0 .078-.052.222-.098.348-.102.278-.23.623-.107.99.123.37.434.567.683.724.094.06.223.141.258.189.034.047.072.195.1.303.054.206.117.448.267.653v2.136H1.014V1.013h10.469v4.08c0 .28.227.507.507.507h4.079v16.093H13.55z"/>
        <path d="M2.983 5.6h6.53a.507.507 0 0 0 0-1.014h-6.53a.507.507 0 1 0 0 1.014zM14.156 7.145H2.983a.507.507 0 1 0 0 1.013h11.173a.507.507 0 1 0 0-1.013zM12.129 9.703H2.983a.507.507 0 0 0 0 1.014h9.146a.507.507 0 1 0 0-1.014zM14.156 9.703a.508.508 0 0 0 0 1.014.508.508 0 0 0 0-1.014z"/>
    </g>
</svg>
