<svg xmlns="http://www.w3.org/2000/svg" width="33" height="30" viewBox="0 0 33 30">
    <g fill="#FFF" fill-rule="nonzero">
        <path d="M28.463 0H4.537C2.035 0 0 2.01 0 4.483v14.468c0 2.467 2.026 4.475 4.52 4.483V30l9.55-6.566h14.393c2.502 0 4.537-2.01 4.537-4.483V4.483C33 2.011 30.965 0 28.463 0zm2.603 18.951c0 1.419-1.167 2.573-2.603 2.573h-15l-7.009 4.819v-4.82H4.537c-1.436 0-2.603-1.153-2.603-2.572V4.483c0-1.419 1.167-2.572 2.603-2.572h23.926c1.436 0 2.603 1.153 2.603 2.572v14.468z"/>
        <path d="M9 7h15v2H9zM9 11h15v2H9zM9 15h15v2H9z"/>
    </g>
</svg>
