<svg xmlns="http://www.w3.org/2000/svg" width="24" height="18" viewBox="0 0 24 18">
    <g fill="#9A9898" fill-rule="nonzero">
        <path d="M12.39 12.706c.564 0 1.022-.417 1.022-.93 0-.51-.458-.924-1.021-.924L7.765 7.765l3.605 4.072c.033.484.478.869 1.02.869zM7.059 15.529h9.882v2.118H7.059z"/>
        <path d="M20.485 3.48A11.98 11.98 0 0 0 12 0a11.98 11.98 0 0 0-8.485 3.48A11.75 11.75 0 0 0 0 11.885c0 2.05.521 4.02 1.5 5.763h2.243l1.64-.938-.724-1.243-2.11 1.206a10.37 10.37 0 0 1-1.126-5.693l2.516.44.251-1.414-2.545-.444a10.483 10.483 0 0 1 2.896-5.15l1.724 2.034 1.11-.922-1.737-2.05a10.62 10.62 0 0 1 5.638-2.078v2.722h1.448V1.395c2.106.142 4.045.893 5.638 2.078l-1.737 2.05 1.11.922 1.724-2.035a10.484 10.484 0 0 1 2.895 5.15l-2.544.445.252 1.413 2.514-.439a10.368 10.368 0 0 1-1.126 5.693l-2.11-1.206-.724 1.243 1.64.938H22.5a11.728 11.728 0 0 0 1.5-5.763 11.75 11.75 0 0 0-3.515-8.403z"/>
    </g>
</svg>
