<?xml version="1.0" encoding="UTF-8"?>
<svg width="17px" height="17px" viewBox="0 0 17 17" version="1.1" xmlns="http://www.w3.org/2000/svg" xmlns:xlink="http://www.w3.org/1999/xlink">
    <!-- Generator: Sketch 59.1 (86144) - https://sketch.com -->
    <title>edit (5)</title>
    <desc>Created with Sketch.</desc>
    <g id="Pre-Admission" stroke="none" stroke-width="1" fill="none" fill-rule="evenodd">
        <g id="School-Management-System--Admission---Admission-list" transform="translate(-1181.000000, -348.000000)" fill="#000000" fill-rule="nonzero">
            <g id="edit-(5)" transform="translate(1181.000000, 348.000000)">
                <path d="M15.5795999,10.8105013 C15.3473945,10.8105013 15.1591998,10.9967177 15.1591998,11.2264819 L15.1591998,14.9199346 C15.1583787,15.6089024 14.5942872,16.1672264 13.8979996,16.1678763 L2.10200039,16.1678763 C1.40571276,16.1672264 0.841621239,15.6089024 0.840800155,14.9199346 L0.840800155,4.07990294 C0.841621239,3.39109757 1.40571276,2.83277363 2.10200039,2.83196118 L5.83469325,2.83196118 C6.06689862,2.83196118 6.25509332,2.64574484 6.25509332,2.41598059 C6.25509332,2.18637881 6.06689862,2 5.83469325,2 L2.10200039,2 C0.941630508,2.00129994 0.00131375024,2.9317315 0,4.07990294 L0,14.9200971 C0.00131375024,16.0682685 0.941630508,16.9987001 2.10200039,17 L13.8979996,17 C15.0583695,16.9987001 15.9986862,16.0682685 16,14.9200971 L16,11.2264819 C16,10.9967177 15.8118053,10.8105013 15.5795999,10.8105013 Z" id="Path"></path>
                <path d="M15.9815885,0.539160508 C15.262644,-0.179720169 14.0970558,-0.179720169 13.3781113,0.539160508 L6.07968186,7.83694217 C6.02966417,7.88695543 5.99354913,7.94895274 5.97469264,8.01702188 L5.0149281,11.4816786 C4.97545725,11.623729 5.01556726,11.775846 5.11975753,11.8801868 C5.22410754,11.9843678 5.37623806,12.0244742 5.5183011,11.9851667 L8.98326531,11.0253275 C9.05134049,11.0064727 9.11334327,10.9703609 9.163361,10.9203476 L16.4616306,3.62240615 C17.1794565,2.9030461 17.1794565,1.73852007 16.4616306,1.01915999 L15.9815885,0.539160508 Z M6.97105163,8.10282737 L12.9442516,2.12999766 L14.8706522,4.05622726 L8.89729237,10.029057 L6.97105163,8.10282737 Z M6.58625092,8.87491708 L8.12529397,10.4139833 L5.99642557,11.0037563 L6.58625092,8.87491708 Z M15.8831511,3.04397802 L15.4492915,3.47779913 L13.5227312,1.55140975 L13.9567505,1.11758864 C14.3560931,0.718281475 15.0036066,0.718281475 15.4029492,1.11758864 L15.8831511,1.59758812 C16.2818545,1.99737465 16.2818545,2.6443513 15.8831511,3.04397802 L15.8831511,3.04397802 Z" id="Shape"></path>
            </g>
        </g>
    </g>
</svg>