<svg xmlns="http://www.w3.org/2000/svg" width="26" height="26" viewBox="0 0 26 26">
    <g fill="none" fill-rule="nonzero">
        <path fill="#9A9898" d="M2.333 23.167v-.5h-1v.5a1.5 1.5 0 0 0 1.5 1.5h.5v-1h-.5a.5.5 0 0 1-.5-.5zM1.333 22H2v.667h-.667zM3.333 24H4v.667h-.667z"/>
        <path fill="#EB4B0C" d="M25.843 13.14l.002-.002-2.445-2.04V3.963c0-.716-.582-1.296-1.3-1.296v.864c.24 0 .433.193.433.432v10.971L13 21.163l-9.533-6.229V3.963c0-.239.194-.432.433-.432h5.2v-.864H3.9c-.718 0-1.3.58-1.3 1.296v7.135l-2.445 2.04v.002a.432.432 0 0 0-.155.33v10.37A2.166 2.166 0 0 0 2.167 26h21.666A2.166 2.166 0 0 0 26 23.84V13.47a.432.432 0 0 0-.157-.33zm-2.443-.915l1.44 1.2-1.44.943v-2.143zM2.6 14.368l-1.44-.942 1.44-1.2v2.142zm22.533 9.472c0 .715-.582 1.296-1.3 1.296H2.167c-.718 0-1.3-.58-1.3-1.296v-9.571l11.896 7.771a.434.434 0 0 0 .476 0l11.894-7.771v9.57z"/>
        <path fill="#EB4B0C" d="M5.102 9.073A2.127 2.127 0 0 0 4.02 11.21c.116.86.754 1.568 1.615 1.792a2.238 2.238 0 0 0 1.672-.214l1.415-.796 5.632 5.633c.518.5 1.353.5 1.871 0l.485-.471a1.26 1.26 0 0 0 .385-1.023 1.274 1.274 0 0 0-.563-.94l-2.648-1.952a2.164 2.164 0 0 1-.609-.593l-.82-1.193 5.62-.788a.443.443 0 0 0 .157-.053c1.054-.592 1.415-1.904.807-2.93L15.51 1.74C14.903.714 13.555.362 12.501.954a.437.437 0 0 0-.126.107L6.556 8.256l-1.454.817zm1.763 2.972c-.41.23-.913.23-1.323 0a1.282 1.282 0 0 1-.661-1.116c0-.46.253-.885.662-1.115l1.146-.643 1.322 2.23-1.146.644zm5.676 1.078c.22.322.5.599.83.815l2.648 1.952c.11.071.182.187.195.315a.41.41 0 0 1-.129.343l-.485.472a.45.45 0 0 1-.621.004l-5.193-5.197 1.702-.239 1.053 1.535zm1.404-11.554c.34.087.628.304.803.6l3.526 5.943c.283.47.226 1.065-.142 1.476L13.364 1.55c.192-.037.391-.03.581.018zm-1.28.52l4.638 7.817-8.458 1.186L7.38 8.624l5.285-6.535zM17.978 3.64l2.252-1.302.433.752-2.251 1.302zM16.955 2.297l1.3-2.256.75.434-1.3 2.256zM19.333 5.333H22V6h-2.667z"/>
    </g>
</svg>
