<svg xmlns="http://www.w3.org/2000/svg" width="16" height="20" viewBox="0 0 16 20">
    <g fill="#000" fill-rule="nonzero">
        <path d="M8.027 14.58a.294.294 0 0 1-.294-.294V7.65a.294.294 0 1 1 .588 0v6.635a.294.294 0 0 1-.294.294z"/>
        <path d="M8.027 14.58a.295.295 0 0 1-.208-.086l-2.537-2.537a.294.294 0 0 1 .416-.416l2.328 2.329 2.33-2.329a.294.294 0 0 1 .415.416l-2.537 2.537a.29.29 0 0 1-.207.086z"/>
        <g>
            <path stroke="#000" d="M14.458 19.084H1.598a.972.972 0 0 1-.972-.97V1.47c0-.535.436-.971.971-.971h9.34a.206.206 0 1 1 0-.412h-9.34C.834.088.215.708.215 1.471v16.643c0 .762.62 1.382 1.382 1.382h12.86c.763 0 1.383-.62 1.383-1.382V5.12a.206.206 0 1 1-.412 0v12.994c0 .535-.435.97-.97.97z"/>
            <path d="M15.634 5.414h-4.698a.294.294 0 0 1-.294-.294V.422a.294.294 0 0 1 .589 0v4.403h4.403a.294.294 0 0 1 0 .59z"/>
            <path d="M15.634 5.414a.295.295 0 0 1-.21-.089L10.726.5a.294.294 0 0 1 .422-.41l4.697 4.825a.294.294 0 0 1-.21.5z"/>
        </g>
    </g>
</svg>
