<svg xmlns="http://www.w3.org/2000/svg" width="32" height="19" viewBox="0 0 32 19">
    <path fill="#EB4B0C" fill-rule="nonzero" d="M21.997 4.333l-2.861-2.86A4.767 4.767 0 0 0 15.742.067H9.037c-.414 0-.822.097-1.193.281L6.65.946a1.58 1.58 0 0 1-.774.168l-.542-.02V.068H0V11.8h5.333v-1.6h.907l.323.213a5.88 5.88 0 0 0 3.037.978V18.2H32V4.333H21.997zm-17.73 6.4h-3.2v-9.6h3.2v9.6zm2.886-1.207l-.593-.393H5.333V2.162l.503.018c.447.016.89-.08 1.29-.28l1.194-.598c.222-.11.468-.169.717-.169h6.705c.99-.003 1.941.391 2.64 1.094l2.107 2.106h-4.402L14.793 3.04l-.754.754 3.768 3.768a1.07 1.07 0 0 1-1.51 1.515L13.151 5.93l-.374.32a2.827 2.827 0 0 1-3.595.053l-.309-.25-.672.828.313.253c.326.262.693.468 1.086.613v2.577a4.81 4.81 0 0 1-2.447-.798zm7.587-.5l.805.806a2.149 2.149 0 0 0 3.013.002 2.7 2.7 0 1 0 .303-.387c.364-.572.43-1.285.175-1.914h7.142a3.209 3.209 0 0 0 2.622 2.623v2.222A3.209 3.209 0 0 0 26.178 15H15.422a3.209 3.209 0 0 0-2.622-2.622v-2.222a3.184 3.184 0 0 0 1.94-1.13zm4.46 2.24a1.6 1.6 0 1 1 3.2 0 1.6 1.6 0 0 1-3.2 0zm11.733 5.867H10.667V7.97a3.878 3.878 0 0 0 2.4-.613l.91.91c-.4.543-1.035.865-1.71.866h-.534V13.4h.534c1.178 0 2.133.955 2.133 2.133v.534h12.8v-.534c0-1.178.955-2.133 2.133-2.133h.534V9.133h-.534A2.133 2.133 0 0 1 27.2 7v-.533h-8.98L17.155 5.4h13.78v11.733z"/>
</svg>
