<svg xmlns="http://www.w3.org/2000/svg" width="33" height="45" viewBox="0 0 33 45">
    <path fill="#888" fill-rule="nonzero" d="M30.455 32.264c-.592-2.966-3.374-3.47-3.383-3.474-.03-.009.256.062-6.784-1.682v-.24h5.182a1.94 1.94 0 0 0 1.937-1.936v-9.883a2.42 2.42 0 0 0 0-1.118v-3.607a.658.658 0 1 0-1.316 0v1.888a3.416 3.416 0 0 0-1.171-.43 1.716 1.716 0 0 0-1.446-1.322c-.753-.099-1.324-.538-1.696-1.304a1.12 1.12 0 0 0-.913-.631 1.117 1.117 0 0 0-1.01.455c-1.131 1.54-4.276 4.992-9.705 4.991-.413 0-.693-.02-.79-.023a1.74 1.74 0 0 0-1.842 1.736v1.512a8.925 8.925 0 0 0 2.75 6.427 8.812 8.812 0 0 0 1.9 1.383v.547H7.012a.622.622 0 0 1-.622-.621V10.147c0-4.794 3.908-8.743 8.63-8.743h.045c1.691.009 3.644.49 4.975 1.224.844.465 1.365.095 2.197.095 2.033 0 3.662 2.09 3.858 3.97 0 .028.004.138.004.56 0 .636.718.685.659.658a.658.658 0 0 0 .657-.658c0-.117.001-.575-.01-.682-.265-2.617-2.497-5.164-5.168-5.164-1.042 0-1.205.264-1.561.068C19.165.643 16.966.098 15.07.088 9.61.053 5.073 4.603 5.073 10.147v14.785a1.94 1.94 0 0 0 1.937 1.937h5.159v.239L5.41 28.782l-.026.008-.494.145a.694.694 0 0 0-.044.015c-.881.329-2.422 1.196-2.845 3.314C-.001 42.324.084 41.894.079 41.93c-.241 1.706.613 3.07 2.667 3.07h7.116a.658.658 0 1 0 0-1.315H7.386v-6.206a.658.658 0 1 0-1.316 0v6.206H2.746c-.874 0-1.381-.281-1.39-1.2-.003-.448-.021-.01 1.937-9.963.294-1.475 1.366-2.092 1.994-2.33l.456-.135 3.88-.962c4.318 5.086 4.062 4.816 4.311 5.06 1.441 1.405 3.497 1.306 4.85-.283l4.064-4.773 3.866.958c.112.051 2.036.39 2.45 2.465 1.941 9.866 1.94 9.513 1.937 9.963-.007.9-.493 1.2-1.39 1.2h-3.3v-6.206a.658.658 0 1 0-1.316 0v6.206H12.932a.658.658 0 1 0 0 1.316h16.779c1.625 0 2.69-.895 2.706-2.506.005-.752-.04-.393-1.962-10.23zM24.963 13.14c.55.164.973.526 1.128.973v.754c-.155.447-.579.81-1.128.972V13.14zm0 4.17v-.12a3.409 3.409 0 0 0 1.128-.423v8.165a.622.622 0 0 1-.62.62h-5.183v-.508a8.71 8.71 0 0 0 4.675-7.733zm-13.786 5.361a7.603 7.603 0 0 1-2.343-5.475c.04-1.433-.095-1.606.134-1.821a.415.415 0 0 1 .312-.114c4.718.284 8.776-1.79 11.455-5.263.722 1.269 1.782 1.664 2.567 1.767a.396.396 0 0 1 .345.39v5.156c0 6.547-7.838 9.781-12.47 5.36zm6.605 10.347c-.917 1.077-2.2 1.074-3.114-.006l-1.373-1.62h5.871l-1.384 1.626zm2.505-2.942H12.18l-1.131-1.335 1.936-.48a.665.665 0 0 0 .5-.645V25.58a8.715 8.715 0 0 0 5.487.019c.012 2.103-.028 2.055.037 2.24a.658.658 0 0 0 .463.422l1.949.483-1.134 1.332z"/>
</svg>
