<svg xmlns="http://www.w3.org/2000/svg" width="265" height="49" viewBox="0 0 265 49">
    <g fill="#FF5715" fill-rule="nonzero">
        <path d="M229.432 21c-9.307 0-14.09-4.241-18.304-7.982-3.838-3.404-7.15-6.344-14.003-6.344-6.854 0-10.165 2.94-14.004 6.344-4.191 3.726-9.01 7.982-18.31 7.982-9.3 0-14.083-4.241-18.304-7.982-3.838-3.404-7.15-6.344-14.003-6.344-6.854 0-10.166 2.94-14.004 6.344-4.22 3.74-9.004 7.982-18.303 7.982-9.3 0-14.083-4.241-18.304-7.982-3.838-3.404-7.15-6.344-14.003-6.344-6.854 0-10.166 2.94-14.004 6.344C49.673 16.744 44.889 21 35.582 21c-9.306 0-14.082-4.241-18.303-7.982-3.838-3.404-7.15-6.344-14.004-6.344C1.466 6.674 0 5.18 0 3.337 0 1.494 1.466 0 3.275 0c9.3 0 14.083 4.241 18.304 7.982 3.838 3.404 7.15 6.344 13.996 6.344 6.847 0 10.166-2.94 14.004-6.344C53.799 4.242 58.575 0 67.882 0s14.083 4.241 18.304 7.982c3.838 3.404 7.15 6.344 14.003 6.344 6.854 0 10.166-2.94 14.004-6.344C118.413 4.242 123.197 0 132.496 0c9.3 0 14.083 4.241 18.304 7.982 3.838 3.404 7.15 6.344 14.003 6.344 6.854 0 10.166-2.94 14.004-6.344C183.027 4.242 187.811 0 197.11 0c9.3 0 14.09 4.241 18.304 7.982 3.838 3.404 7.15 6.344 14.004 6.344 6.853 0 10.165-2.94 14.003-6.344C247.641 4.242 252.425 0 261.725 0 263.534 0 265 1.494 265 3.337c0 1.843-1.466 3.337-3.275 3.337-6.854 0-10.166 2.94-14.004 6.344-4.206 3.726-8.99 7.982-18.289 7.982z"/>
        <path d="M229.027 33c-8.667 0-13.044-3.707-17.247-7.287-3.922-3.339-7.627-6.494-15.094-6.494-7.468 0-11.173 3.155-15.095 6.494-4.203 3.58-8.55 7.287-17.246 7.287-8.696 0-13.044-3.707-17.247-7.287-3.922-3.339-7.627-6.494-15.094-6.494-7.468 0-11.173 3.155-15.095 6.494-4.203 3.58-8.55 7.287-17.246 7.287-8.696 0-13.051-3.672-17.247-7.287-3.922-3.339-7.62-6.494-15.094-6.494-7.475 0-11.173 3.155-15.095 6.494C48.024 29.293 43.676 33 34.98 33c-8.695 0-13.043-3.672-17.246-7.287-3.922-3.339-7.62-6.494-15.095-6.494-.905 0-1.639-.72-1.639-1.606 0-.887.734-1.606 1.64-1.606 8.666 0 13.043 3.707 17.246 7.287 3.922 3.339 7.62 6.494 15.087 6.494 7.468 0 11.173-3.155 15.095-6.494C54.249 19.707 58.583 16 67.314 16c8.732 0 13.044 3.707 17.247 7.287 3.922 3.339 7.62 6.494 15.094 6.494 7.475 0 11.173-3.155 15.095-6.494 4.203-3.58 8.55-7.287 17.246-7.287 8.696 0 13.044 3.707 17.247 7.287 3.922 3.339 7.62 6.494 15.094 6.494 7.475 0 11.173-3.155 15.095-6.494 4.203-3.58 8.55-7.287 17.246-7.287 8.696 0 13.044 3.707 17.247 7.287 3.922 3.339 7.627 6.494 15.095 6.494 7.467 0 11.172-3.155 15.094-6.494 4.203-3.58 8.551-7.287 17.247-7.287.905 0 1.639.719 1.639 1.606 0 .887-.734 1.606-1.64 1.606-7.474 0-11.172 3.155-15.094 6.494-4.196 3.622-8.573 7.294-17.24 7.294z"/>
        <path d="M229.425 49c-9.307 0-14.09-4.241-18.304-7.982-3.838-3.404-7.15-6.344-14.003-6.344-6.854 0-10.166 2.94-14.004 6.344-4.22 3.74-9.004 7.982-18.303 7.982-9.3 0-14.083-4.241-18.304-7.982-3.838-3.404-7.15-6.344-14.003-6.344-6.854 0-10.166 2.94-14.004 6.344-4.22 3.74-9.004 7.982-18.303 7.982-9.3 0-14.083-4.241-18.304-7.982-3.838-3.404-7.15-6.344-14.003-6.344-6.854 0-10.166 2.94-14.004 6.344C49.666 44.758 44.882 49 35.582 49c-9.3 0-14.082-4.241-18.303-7.982-3.838-3.404-7.15-6.344-14.004-6.344C1.466 34.674 0 33.18 0 31.337 0 29.494 1.466 28 3.275 28c9.3 0 14.083 4.241 18.304 7.982 3.838 3.404 7.15 6.344 13.996 6.344 6.847 0 10.166-2.94 14.004-6.344C53.799 32.242 58.575 28 67.882 28s14.083 4.241 18.304 7.982c3.838 3.404 7.15 6.344 14.003 6.344 6.854 0 10.166-2.94 14.004-6.344 4.22-3.74 9.004-7.982 18.303-7.982 9.3 0 14.083 4.241 18.304 7.982 3.838 3.404 7.15 6.344 14.003 6.344 6.854 0 10.166-2.94 14.004-6.344 4.22-3.74 9.004-7.982 18.303-7.982 9.3 0 14.09 4.241 18.304 7.982 3.838 3.404 7.15 6.344 14.004 6.344 6.853 0 10.165-2.94 14.003-6.344 4.22-3.74 9.004-7.982 18.304-7.982 1.809 0 3.275 1.494 3.275 3.337 0 1.843-1.466 3.337-3.275 3.337-6.854 0-10.166 2.94-14.004 6.344-4.213 3.74-8.997 7.982-18.296 7.982z"/>
    </g>
</svg>
