<svg xmlns="http://www.w3.org/2000/svg" width="439" height="39" viewBox="0 0 439 39">
    <g fill="#FF7945" fill-rule="nonzero">
        <path d="M374.42 20.773c-.143-.322-.381-.453-.528-.29 0 0-.69.762-1.325 1.044-.634.283-1.662.286-1.662.286-.22 0-.282.265-.139.587l.756 1.698c.144.322.416.517.606.432l2.965-1.32c.19-.084.227-.417.083-.739l-.756-1.698zM371.536 3.838a.86.86 0 0 0-1.133-.442l-10.314 4.592a.86.86 0 0 0-.43 1.138l2.903 6.518c.908 2.04 2.335 3.63 4.018 4.477 1.694.852 3.531.919 5.174.187 1.643-.731 2.823-2.141 3.323-3.97.496-1.817.27-3.942-.639-5.982l-2.902-6.518zM362.706 18.323c-1.271.113-2.17-.537-2.818-1.995l-1.476-3.315 1.49-.664-.66-1.485-2.297 1.023c-.445.198-.658.691-.475 1.101l1.806 4.058c1.102 2.475 3.061 3.41 5.585 2.708a9.23 9.23 0 0 1-1.155-1.43zM369.123 26.555a.86.86 0 0 0-.43 1.137l1.738 3.904a.86.86 0 0 0 1.133.44l10.313-4.591a.86.86 0 0 0 .43-1.137l-1.738-3.904a.86.86 0 0 0-1.133-.44l-10.313 4.591zM375.988 2.978L373.69 4l.66 1.485 1.492-.664 1.476 3.315c.649 1.458.531 2.56-.403 3.43.16.605.256 1.213.29 1.815 2.21-1.406 2.827-3.487 1.724-5.962l-1.806-4.058c-.183-.41-.691-.582-1.136-.383zM288.005 3c-5.202 0-9.903 3.1-11.95 7.883l-.163.054.063.188c-2.695 6.65.509 14.227 7.157 16.923 1.553.63 3.213.953 4.889.952 7.178.001 12.998-5.818 12.999-12.998C301.001 8.822 295.183 3 288.005 3zM298.2 22.554l-.668-.667v-1.554a.433.433 0 0 0-.043-.193l-1.69-3.376v-1.63a.433.433 0 0 0-.193-.361l-1.3-.867a.433.433 0 0 0-.346-.06l-1.592.398-2.673-1.147-.368-2.578 1.02-1.019h2.188l.736 1.107c.067.1.171.167.29.187l2.599.433a.43.43 0 0 0 .208-.016l2.394-.798a12.092 12.092 0 0 1-.562 12.141zM296.413 7.27l-.705.47-1.964-.393-1.274-.424a.425.425 0 0 0-.242-.01l-1.61.403-.707-.236.524-1.047h1.465a.433.433 0 0 0 .194-.045l1.499-.75a12.175 12.175 0 0 1 2.82 2.032zm-13.158-2.436l1.04.694a.433.433 0 0 0 .17.066l2.1.35-.206.614-1.094.365a.433.433 0 0 0-.234.188l-1.244 2.074-1.999 1.199-2.946.42a.433.433 0 0 0-.373.43v1.3c0 .114.046.224.127.306l.74.74v.744l-1.802-1.202-.654-1.962a12.202 12.202 0 0 1 6.375-6.326zm-1.233 14.208l-1.958-.392-.728-1.452v-1.019l1.614-1.614.598 1.195c.073.147.223.24.387.24h2.788l1.173 1.956c.079.13.22.21.372.21h1.204l-.303 1.52-1.64 1.641a.434.434 0 0 0-.128.306v1.084l-1.56 1.17a.433.433 0 0 0-.173.346V25.8l-.539-.179-.76-1.903v-4.25a.433.433 0 0 0-.347-.425zm-1.302 6.661a12.132 12.132 0 0 1-4.321-13.246l.36 1.08c.03.091.09.17.17.224l2.16 1.44-.493.493a.433.433 0 0 0-.127.306v1.3c0 .067.016.134.046.194l.866 1.733c.06.12.172.205.304.231l1.82.364V23.8c0 .055.01.11.03.16l.867 2.167c.047.119.144.21.265.25l1.3.434a.433.433 0 0 0 .568-.41v-1.951l1.56-1.17a.433.433 0 0 0 .173-.347v-1.12l1.606-1.607a.434.434 0 0 0 .118-.221l.433-2.167a.433.433 0 0 0-.424-.518h-1.488l-1.174-1.957a.433.433 0 0 0-.37-.21h-2.766l-.744-1.493a.433.433 0 0 0-.694-.113l-.563.56V13.4a.433.433 0 0 0-.127-.306l-.74-.74v-.745l2.662-.38a.435.435 0 0 0 .161-.058l2.167-1.3a.433.433 0 0 0 .148-.148l1.217-2.03 1.148-.382a.429.429 0 0 0 .274-.274l.433-1.3a.433.433 0 0 0-.34-.563l-2.507-.419-.44-.293a12.095 12.095 0 0 1 8.331.31l-.791.395h-1.631a.433.433 0 0 0-.39.24l-.866 1.733a.433.433 0 0 0 .25.604l1.3.433c.078.027.162.03.242.01l1.61-.403 1.18.393c.018.007.035.011.053.014l2.166.434a.43.43 0 0 0 .325-.064l.986-.658c.486.54.922 1.123 1.304 1.741l-2.132.711-2.308-.385-.762-1.144a.433.433 0 0 0-.359-.193h-2.599a.433.433 0 0 0-.306.127l-1.3 1.3a.433.433 0 0 0-.123.368l.434 3.034c.021.15.12.277.26.336l3.032 1.3a.428.428 0 0 0 .276.022l1.547-.387.946.632v1.502c-.001.067.014.133.043.193l1.69 3.376v1.63c0 .116.045.226.127.307l.906.907c-4.02 5.359-11.622 6.444-16.98 2.423zM192.485 15.878a11.93 11.93 0 0 0-3.97 2.636A11.964 11.964 0 0 0 185 27a11.958 11.958 0 0 0 3.515 8.485A11.949 11.949 0 0 0 197 39a11.966 11.966 0 0 0 8.485-3.515A11.957 11.957 0 0 0 209 27a11.97 11.97 0 0 0-3.514-8.486A11.966 11.966 0 0 0 197 15c-1.56 0-3.078.295-4.516.878zm-4.486 16.048a7.51 7.51 0 0 1-1.417-1.23 11.775 11.775 0 0 1-.327-6.097c.201-.428.43-.839.688-1.233.08-.121.154-.248.24-.366l2.424 1.55v.065a21.733 21.733 0 0 0 .39 4.185c0 .006.002.01.003.016L188.12 32a1.456 1.456 0 0 1-.121-.074zm7.58 5.247c.46.321.934.592 1.421.813-2.067.122-4.155-.54-6-1.986l4.474 1.089c.034.03.069.059.105.084zm.848-1.173l-5.378-.912a15.975 15.975 0 0 1-1.682-2.317c-.124-.209-.262-.412-.367-.63L191.107 29l.157.038c1.318.335 2.66.573 4.01.76.079.01.145.02.2.026L198 33.976a92.376 92.376 0 0 1-1.334 1.744 5.026 5.026 0 0 1-.239.28zm8.327-1.12a11.06 11.06 0 0 1-1.35 1.12 9.739 9.739 0 0 0-.404-1.79l2.677-4.855a12.608 12.608 0 0 0 2.11-1.156A.932.932 0 0 0 208 28a10.716 10.716 0 0 1-3.246 6.88zm.932-5.838c.105.195.21.392.314.59l-2.74 4.943-.046.008c-1.481.268-2.974.41-4.48.417L196 30.429c.426-.764.847-1.531 1.265-2.299.284-.52.563-1.044.842-1.568l5.659-.562c.693.983 1.35 1.987 1.92 3.042zm-2.067-5.653c-.249.69-.515 1.375-.78 2.06l-5.112.551a4.347 4.347 0 0 0-.191-.248c-.604-.718-1.211-1.431-1.818-2.147l.017-.02-.735-.77 1.423-4.501c.098-.028.197-.05.297-.062.773-.082 1.548-.176 2.324-.223a10.76 10.76 0 0 1 1.435-.008L204 22.19c-.121.402-.24.805-.38 1.2zm1.095-3.843A11.625 11.625 0 0 1 207 23a11.19 11.19 0 0 0-2.13-1.194 6.23 6.23 0 0 0-.357-.138L201 17.538a5.05 5.05 0 0 0 .043-.538 11.09 11.09 0 0 1 3.671 2.546zm-10.939-2.508c.014.01.02.018.028.02.794.263 1.516.65 2.197 1.11l-1.332 3.848a.147.147 0 0 0-.02.006c-.273.108-.55.205-.82.322-1.105.482-2.183 1.016-3.199 1.656L188 22.508a.734.734 0 0 1 .046-.23c.176-.45.35-.904.55-1.346.154-.34.329-.67.52-.99A11.06 11.06 0 0 1 193.8 17a.731.731 0 0 0-.025.037zM122.873 5.327l-5.2-5.2a.433.433 0 0 0-.613 0L97.127 20.06a.433.433 0 0 0 0 .613l5.2 5.2a.432.432 0 0 0 .613 0L122.873 5.94a.432.432 0 0 0 0-.613zm-20.24 19.627l-4.587-4.588 19.32-19.32 4.588 4.588-19.32 19.32z"/>
        <path d="M117.5 4c-.827 0-1.5.673-1.5 1.5s.673 1.5 1.5 1.5 1.5-.673 1.5-1.5-.673-1.5-1.5-1.5zm0 2a.5.5 0 1 1 .001-1.001A.5.5 0 0 1 117.5 6zM113.18 4.58l.612-.614 1.298 1.3-.612.614zM111.883 5.88l.611-.613L114.224 7l-.611.613zM110.585 7.18l.612-.613 1.298 1.3-.612.614zM109.288 8.48l.611-.613 1.73 1.735-.611.613zM107.99 9.781l.612-.613 1.298 1.3-.612.614zM106.693 11.082l.611-.614 1.73 1.735-.611.613zM105.395 12.382l.612-.613 1.297 1.3-.611.613zM104.098 13.683l.611-.613 1.73 1.734-.611.614zM102.8 14.984l.612-.613 1.297 1.3-.611.614zM101.503 16.285l.611-.613 1.73 1.734-.611.613zM100.206 17.586l.612-.613 1.297 1.3-.611.613zM98.907 18.886l.612-.613 1.73 1.734-.612.613z"/>
        <g>
            <path d="M53.203 30.078l-1.544-.688c-.33-.147-.69-.061-.802.19-.112.253.065.577.395.724l1.544.688c.33.147.69.061.802-.19.112-.253-.065-.577-.395-.724zM54.237 33.906a.93.93 0 0 0-.675-.3l-1.066.047c-.228.01-.296.161-.15.338a.851.851 0 0 0 .306.22.851.851 0 0 0 .369.08l1.066-.047c.228-.01.295-.162.15-.338zM69.755 37.375l-9.07-4.038L73.86 28.73c.573-.2.848-.818.613-1.378l-3.69-8.81a1.185 1.185 0 0 0-1.463-.652l-14.412 5.04a3.087 3.087 0 0 0-1.83 1.661 3.087 3.087 0 0 0-.01 2.471l1.777 4.242c.198.474.574.854 1.058 1.07l13.418 5.974c.286.127.614.012.734-.257s-.015-.59-.3-.717zM56.336 31.4a.872.872 0 0 1-.453-.458L54.106 26.7a2.048 2.048 0 0 1 1.227-2.755l2.357-.824 3.171 7.571c.059.14.17.247.303.306.132.059.286.07.429.02a.511.511 0 0 0 .307-.689l-3.172-7.571 11.017-3.852 3.69 8.81-14.213 4.97-2.886-1.286z"/>
        </g>
        <g>
            <path d="M20 18a3.426 3.426 0 0 0-4.838 0L1.455 31.707c-.007.006-.01.014-.016.02l-.022.03a.37.37 0 0 0-.048.09c-.003.01-.008.02-.01.03l-.005.01L.01 37.532a.377.377 0 0 0-.008.077L0 37.623a.378.378 0 0 0 .036.153.38.38 0 0 0 .075.113.383.383 0 0 0 .356.1l5.645-1.343c.01-.002.019-.008.029-.011a.351.351 0 0 0 .114-.062c.009-.007.018-.012.027-.02l.01-.008L20 22.838A3.425 3.425 0 0 0 20 18zm-.73.73c.89.891.965 2.29.232 3.27L16 18.498a2.507 2.507 0 0 1 3.27.233zM17.5 24L14 20.5l.5-.5 3.5 3.5-.5.5zM1.86 36.14a.395.395 0 0 0-.56 0l-.3.3 1.01-4.246L3.76 32l-.224 2.027c-.002.015.004.03.004.044 0 .015-.006.028-.004.043.001.013.008.024.01.037a.402.402 0 0 0 .098.187.397.397 0 0 0 .198.112c.015.004.028.012.043.014a.389.389 0 0 0 .043.003h.001c.015 0 .03-.001.044-.003L6 34.24l-.194 1.75L1.56 37l.3-.3a.396.396 0 0 0 0-.56zm4.96-2.326l8.336-8.336a.372.372 0 1 0-.527-.527l-8.336 8.337-1.778.197.197-1.778 8.337-8.336a.372.372 0 1 0-.527-.527L4.186 31.18 3 31.312 13.312 21 17 24.688 6.688 35l.132-1.186zM18.5 23L15 19.5l.5-.5 3.5 3.5-.5.5z"/>
        </g>
        <g>
            <path d="M248.395 8.144c-.192.192-.391.347-.601.471l-3.41-3.41c.125-.21.28-.409.472-.6a.941.941 0 0 0-1.33-1.33c-1.526 1.526-1.548 3.37-1.281 5.036-1.939-.4-4.082-.57-5.793 1.141a4.627 4.627 0 0 0-1.359 2.777.293.293 0 0 0 .582.076 4.06 4.06 0 0 1 1.192-2.438c1.576-1.576 3.568-1.35 5.49-.932.058.287.109.512.165.76-1.91-.435-3.761-.742-5.157.674-3.12 3.124 2.181 8.454-1.306 11.941a.354.354 0 0 1-.5-.5c2.212-2.211.236-5.388.081-8.43a.293.293 0 0 0-.586.03c.032.631.14 1.264.257 1.835-1.665-.267-3.51-.245-5.035 1.281a.94.94 0 1 0 1.33 1.33c.191-.192.39-.347.6-.471l3.41 3.41c-.124.21-.28.409-.471.6a.941.941 0 0 0 1.33 1.33c1.525-1.526 1.547-3.37 1.28-5.036 2.213.456 4.19.461 5.793-1.141 1.71-1.711 1.54-3.855 1.14-5.793a8.898 8.898 0 0 0 1.68.124.294.294 0 0 0-.02-.586c-.525.016-1.1-.033-1.794-.156-.056-.247-.111-.48-.173-.749 1.627.328 3.176.424 4.429-.829a.354.354 0 0 1 .5.5 4.011 4.011 0 0 1-1.895 1.09.293.293 0 1 0 .144.568 4.582 4.582 0 0 0 2.166-1.243.934.934 0 0 0 .275-.665c0-.835-1.016-1.254-1.605-.665zm-17.204 9.297a.353.353 0 1 1-.5-.5c.95-.95 2.064-1.236 3.171-1.236.536 0 1.07.067 1.584.158.056.246.113.488.174.75-1.628-.329-3.177-.425-4.43.828zm1.591-.31c.797-.244 1.749-.15 2.978.11.26 1.229.354 2.18.109 2.977l-3.087-3.087zm4.55-1.462c-.224-.966-.422-1.867-.414-2.682l3.095 3.095c-.815.009-1.716-.19-2.682-.413zm3.434.336l-3.77-3.77c.093-.446.277-.859.588-1.236l4.417 4.417c-.377.312-.79.496-1.235.589zm1.65-1.004l-4.417-4.417a2.8 2.8 0 0 1 1.235-.589l3.77 3.77a2.8 2.8 0 0 1-.588 1.236zm.253-4.67c.224.966.422 1.867.413 2.682l-3.095-3.095c.815-.009 1.716.19 2.682.413zm.464 5.802c-1.576 1.576-3.567 1.35-5.49.932a27.849 27.849 0 0 0-.165-.76c1.935.44 3.748.735 5.155-.672 3.099-3.099-2.16-8.476 1.308-11.943a.354.354 0 0 1 .5.5c-3.117 3.116 2.178 8.457-1.308 11.943zm1.108-7.374c-.26-1.229-.354-2.181-.11-2.977l3.087 3.087c-.796.244-1.748.15-2.977-.11z"/>
        </g>
        <g>
            <path d="M437.085 17.477c.046-.627.257-1.679.912-1.908.012-.004.022-.012.033-.018.505-.047.878-.185.68-.52l-6.558-3.544-11.653-.87s-1.335-.095-1.637 1.897c-.165 1.083.067 1.682.313 2.005l-.987.076c-.318.224-.034.502.409.75.007.01.013.022.022.03.505.476.27 1.524.057 2.115-2.205.135-1.497.482-1.497.482l.434.205c-.382.215-.815.684-.972 1.716-.302 1.991.735 2.353.735 2.353l6.911 3.927 11.75-.267s.787-.03-1.173-1.049c.046-.626.257-1.678.913-1.909.012-.004.022-.011.033-.017.505-.048.877-.186.679-.52l-.456-.247c.365-.121.958-.517 1.31-1.796.242-.88.115-1.453-.096-1.819l1.01-.023s.787-.029-1.172-1.049zm-9.352-2.014l1.961.023 6.629.076.987.011c-.417.476-.562 1.22-.613 1.705-.012.11-.02.211-.024.288l-1.09.032-8.438.242.588-2.377zm-8.488.196l.907.392 5.845 2.523.51.22 1.532.66-.43 2.411-7.822-3.756-.77-.37a5.77 5.77 0 0 0 .095-.273c.15-.464.32-1.202.133-1.807zm.275-3.104c.1-.526.276-.884.51-1.035a.521.521 0 0 1 .399-.07c.052.01.088.026.091.026l4.55 2.59 2.27 1.293-.592 2.394-6.433-3.321-.34-.176a.228.228 0 0 0-.043-.016c-.028-.008-.69-.212-.412-1.685zm5.007 12.578l-6.772-3.497a.224.224 0 0 0-.044-.016c-.028-.008-.69-.212-.412-1.685.1-.526.276-.884.51-1.035.149-.097.3-.092.399-.07.052.01.089.025.091.026l6.82 3.883-.592 2.394zm9.95-.475c-.012.11-.02.211-.024.288l-9.53.275.589-2.378 2.02.023.271.129 1.145-.112 5.154.059.988.01c-.418.477-.563 1.22-.614 1.706zm1.19-3.148a.182.182 0 0 0-.05-.003l-.723.042-6.886.398.433-2.428 2.28-.226 5.518-.546c.001 0 .285-.002.442.238.152.234.167.632.045 1.153-.346 1.459-1.034 1.376-1.06 1.372z"/>
        </g>
    </g>
</svg>
