<svg xmlns="http://www.w3.org/2000/svg" width="7" height="7" viewBox="0 0 7 15">
    <path fill="#EB4B0C" fill-rule="nonzero" d="M6.79 13.381l-.22.857c-.665.248-1.196.437-1.59.567-.396.13-.855.195-1.379.195-.804 0-1.43-.186-1.875-.557a1.762 1.762 0 0 1-.67-1.415c0-.22.017-.448.05-.68.034-.232.088-.494.162-.786l.83-2.781c.074-.267.137-.52.187-.758.051-.237.076-.455.076-.651 0-.356-.078-.604-.233-.744-.154-.139-.45-.21-.887-.21-.215 0-.435.033-.66.096a9.577 9.577 0 0 0-.581.18l.222-.857c.544-.21 1.063-.389 1.56-.538.498-.15.967-.224 1.412-.224.798 0 1.414.183 1.847.548.432.366.649.84.649 1.424 0 .12-.015.334-.045.638-.03.305-.085.585-.166.839l-.827 2.77a7.026 7.026 0 0 0-.181.763c-.055.284-.081.502-.081.647 0 .368.086.62.26.753.175.133.476.2.904.2.201 0 .43-.034.684-.1.253-.067.438-.125.552-.176zM7 1.751c0 .483-.192.896-.578 1.234-.385.34-.85.51-1.392.51-.545 0-1.01-.17-1.4-.51-.388-.339-.583-.75-.583-1.233 0-.482.195-.895.584-1.238A2.043 2.043 0 0 1 5.03 0c.543 0 1.007.172 1.392.514C6.808.857 7 1.27 7 1.752z"/>
</svg>
