<svg xmlns="http://www.w3.org/2000/svg" width="22" height="24" viewBox="0 0 22 24">
    <g fill="#DF473A" fill-rule="nonzero">
        <path d="M17.217 0H4.783C2.143.003.003 2.15 0 4.8v9.6c.003 2.65 2.143 4.797 4.783 4.8h1.913v3.84a.96.96 0 0 0 .956.96.955.955 0 0 0 .676-.281l4.503-4.519h4.386c2.64-.003 4.78-2.15 4.783-4.8V4.8C21.997 2.15 19.857.003 17.217 0zm2.87 14.4c0 1.59-1.285 2.88-2.87 2.88h-4.782a.955.955 0 0 0-.676.281l-3.15 3.162V18.24c0-.53-.429-.96-.957-.96h-2.87a2.875 2.875 0 0 1-2.869-2.88V4.8c0-1.59 1.285-2.88 2.87-2.88h12.434c1.585 0 2.87 1.29 2.87 2.88v9.6z"/>
        <path d="M5 5h7v2H5zM13 5h4v2h-4zM5 9h12v2H5zM5 12h7v2H5z"/>
    </g>
</svg>
