<svg xmlns="http://www.w3.org/2000/svg" width="51" height="25" viewBox="0 0 51 25">
    <path fill="#E34C3A" fill-rule="nonzero" d="M46.895 3.954c-4.8-4.8-12.562-4.8-17.363 0-1.021 1.022-1.838 2.247-2.553 3.575H5.529L.424 12.636l5.107 5.107 3.064-3.064 3.064 3.064 3.064-3.064 3.064 3.064h9.193a13.618 13.618 0 0 0 2.553 3.575c4.8 4.8 12.563 4.8 17.363 0 4.8-4.8 4.801-12.563 0-17.364zM40.257 15.7c-1.737-1.736-1.737-4.392 0-6.128 1.736-1.736 4.391-1.736 6.128 0 1.736 1.736 1.736 4.392 0 6.128-1.737 1.737-4.392 1.737-6.128 0z"/>
</svg>
