<svg xmlns="http://www.w3.org/2000/svg" width="22" height="26" viewBox="0 0 22 26">
    <g fill="#FFF" fill-rule="nonzero">
        <path d="M21.677 21.99l-1.868-3.124a9.31 9.31 0 0 1-1.317-4.774v-2.737c0-4.212-3.417-7.64-7.614-7.64-4.198 0-7.614 3.428-7.614 7.64v2.737a9.31 9.31 0 0 1-1.318 4.774L.078 21.99a.547.547 0 0 0 .466.826h20.667a.545.545 0 0 0 .466-.826zm-20.172-.265l1.374-2.298a10.395 10.395 0 0 0 1.472-5.335v-2.737c0-3.612 2.927-6.55 6.527-6.55 3.599 0 6.526 2.938 6.526 6.55v2.737c0 1.88.509 3.724 1.471 5.335l1.375 2.298H1.505z"/>
        <path d="M11.143 0C9.973 0 9.02.952 9.02 2.122v2.123a.53.53 0 0 0 1.062 0V2.122a1.062 1.062 0 0 1 2.122 0v2.123a.53.53 0 0 0 1.061 0V2.122C13.265.952 12.313 0 11.143 0zM13.437 22.017a.531.531 0 1 0-.917.537c.139.234.214.515.214.793 0 .877-.714 1.592-1.591 1.592a1.594 1.594 0 0 1-1.378-2.385.533.533 0 0 0-.19-.727.533.533 0 0 0-.727.19A2.655 2.655 0 0 0 11.141 26a2.658 2.658 0 0 0 2.655-2.653c0-.47-.124-.93-.359-1.33z"/>
    </g>
</svg>
