<svg xmlns="http://www.w3.org/2000/svg" width="22" height="26" viewBox="0 0 22 26">
    <g fill="#9A9898" fill-rule="nonzero">
        <path d="M19.5 0H3.9C2.84 0 1.96.766 1.773 1.773A2.167 2.167 0 0 0 0 3.9v19.933A2.17 2.17 0 0 0 2.167 26h15.6c1.06 0 1.94-.766 2.126-1.773a2.167 2.167 0 0 0 1.774-2.127V2.167A2.17 2.17 0 0 0 19.5 0zm-.433 23.833c0 .717-.584 1.3-1.3 1.3h-15.6c-.717 0-1.3-.583-1.3-1.3V3.9c0-.717.583-1.3 1.3-1.3h13v3.467c0 .24.193.433.433.433h3.467v17.333zm-3.034-18.2v-2.42l2.42 2.42h-2.42zM20.8 22.1c0 .564-.364 1.04-.867 1.22V6.067a.433.433 0 0 0-.127-.307L15.907 1.86a.433.433 0 0 0-.307-.128H2.68c.18-.503.656-.866 1.22-.866h15.6c.717 0 1.3.583 1.3 1.3V22.1z"/>
        <path d="M9.967 3.9A2.17 2.17 0 0 0 7.8 6.067a2.17 2.17 0 0 0 2.167 2.166 2.17 2.17 0 0 0 2.166-2.166A2.17 2.17 0 0 0 9.967 3.9zm0 3.467c-.717 0-1.3-.584-1.3-1.3 0-.717.583-1.3 1.3-1.3.716 0 1.3.583 1.3 1.3 0 .716-.584 1.3-1.3 1.3zM2.167 9.533H6.5v1H2.167zM7.8 9.533h1.3v1H7.8zM10.833 9.533h4.333v1h-4.333zM16.467 9.533h1.3v1h-1.3zM2.167 13H6.5v1H2.167zM7.8 13h1.3v1H7.8zM10.833 13h4.333v1h-4.333zM16.467 13h1.3v1h-1.3zM2.167 17.333H6.5v1H2.167zM7.8 17.333h1.3v1H7.8zM10.833 17.333h4.333v1h-4.333zM16.467 17.333h1.3v1h-1.3zM2.167 20.8H6.5v1H2.167zM7.8 20.8h1.3v1H7.8zM10.833 20.8h4.333v1h-4.333zM16.467 20.8h1.3v1h-1.3z"/>
    </g>
</svg>
