<svg xmlns="http://www.w3.org/2000/svg" width="27" height="30" viewBox="0 0 27 30">
    <g fill="#FFF" fill-rule="nonzero">
        <path d="M16.1 8.772H4.463a.879.879 0 0 0 0 1.757H16.1a.879.879 0 0 0 0-1.757zM16.1 12.119H4.463a.879.879 0 0 0 0 1.758H16.1a.879.879 0 0 0 0-1.758z"/>
        <path d="M20.543 15.844V4.497a2.64 2.64 0 0 0-2.637-2.636H16.11A2.382 2.382 0 0 0 13.79 0H6.772a2.382 2.382 0 0 0-2.321 1.86H2.656A2.64 2.64 0 0 0 .019 4.498v21.42a2.64 2.64 0 0 0 2.637 2.637h12.246A6.986 6.986 0 0 0 19.16 30c3.899 0 7.071-3.206 7.071-7.147 0-3.463-2.449-6.358-5.688-7.01zM6.152 2.379c0-.343.278-.621.62-.621h7.017c.343 0 .621.278.621.62V3.97c0 .343-.278.621-.62.621H6.772a.621.621 0 0 1-.621-.62V2.378zM4.463 20.57h7.996a7.188 7.188 0 0 0-.37 2.282 7.16 7.16 0 0 0 1.177 3.944H2.656a.88.88 0 0 1-.88-.88V4.498a.88.88 0 0 1 .88-.879h1.738v.351a2.381 2.381 0 0 0 2.379 2.379h7.016a2.381 2.381 0 0 0 2.379-2.379v-.35h1.738a.88.88 0 0 1 .879.878v11.219a6.962 6.962 0 0 0-1.85.353.879.879 0 0 0-.835-.603H4.463a.879.879 0 0 0 0 1.758h10.345a7.175 7.175 0 0 0-1.478 1.59H4.463a.879.879 0 0 0 0 1.757zm14.697 7.671c-2.93 0-5.313-2.417-5.313-5.389 0-2.972 2.384-5.39 5.313-5.39 2.93 0 5.313 2.418 5.313 5.39 0 2.972-2.383 5.39-5.313 5.39z"/>
        <path d="M21.741 24.816l-1.702-2.257v-1.511a.879.879 0 0 0-1.758 0v1.805a.88.88 0 0 0 .177.53l1.88 2.49a.877.877 0 0 0 1.23.174.879.879 0 0 0 .173-1.231z"/>
    </g>
</svg>
