<svg xmlns="http://www.w3.org/2000/svg" width="24" height="25" viewBox="0 0 24 25">
    <g fill="#000" fill-rule="nonzero">
        <path d="M16.665 1.667a6.627 6.627 0 0 0-1.641.212v-.212c0-.92-.747-1.667-1.667-1.667H1.692C.772 0 .025.746.025 1.667V23.332c0 .92.746 1.666 1.667 1.666h11.665c.92 0 1.667-.747 1.667-1.667v-8.54a6.666 6.666 0 1 0 1.641-13.124zM10.727.833l-.534.57a.833.833 0 0 1-.608.264H5.461a.833.833 0 0 1-.608-.264l-.535-.57h6.41zm-9.035 0h1.484l1.069 1.14c.315.335.755.526 1.215.527h4.125c.46 0 .9-.191 1.216-.527l1.068-1.14h1.488c.46 0 .833.373.833.834v.481A6.673 6.673 0 0 0 10 8.333a6.599 6.599 0 0 0 1.175 3.78l-.853 2.349a.833.833 0 0 0 1.043 1.079l2.826-.944v6.651c0 .46-.373.833-.833.833H1.692a.833.833 0 0 1-.834-.819V1.667a.833.833 0 0 1 .834-.834zm11.665 23.331H1.692a.833.833 0 0 1-.834-.833v-.647c.253.15.54.229.834.23h11.665c.294-.001.581-.082.833-.232v.65c0 .46-.373.832-.833.832zm3.308-9.999a5.762 5.762 0 0 1-2.203-.43.422.422 0 0 0-.292-.01l-3.067 1.024.93-2.558a.417.417 0 0 0-.058-.391 5.77 5.77 0 0 1-1.143-3.467 5.833 5.833 0 1 1 5.833 5.832z"/>
        <path d="M17.498 8.333c.002.452.152.89.428 1.25h-2.522c.276-.36.426-.798.428-1.25a2.083 2.083 0 1 0-2.083 2.083h5.832a2.083 2.083 0 1 0-2.083-2.083zm-5 0a1.25 1.25 0 1 1 2.5 0 1.25 1.25 0 0 1-2.5 0zm8.333 0a1.25 1.25 0 1 1-2.5 0 1.25 1.25 0 0 1 2.5 0z"/>
    </g>
</svg>
