<svg xmlns="http://www.w3.org/2000/svg" width="25" height="23" viewBox="0 0 25 23">
    <g fill="#6518F0" fill-rule="nonzero">
        <path d="M3.003 22.1a4.16 4.16 0 0 1-1.364-.227l-.985-.34.757-.717a3.96 3.96 0 0 0 1.271-2.863C.951 16.033 0 13.638 0 11.181 0 5.161 5.584.264 12.447.264c6.863 0 12.447 4.897 12.447 10.917S19.31 22.098 12.447 22.098c-2.044 0-4.06-.442-5.856-1.283-.677.479-2.044 1.284-3.588 1.284zm3.44-2.772l.363.184c1.708.864 3.659 1.32 5.64 1.32 6.166 0 11.182-4.329 11.182-9.65 0-5.323-5.016-9.652-11.181-9.652-6.166 0-11.182 4.33-11.182 9.651 0 2.212.89 4.374 2.508 6.089l.165.174.007.24c.028.86-.126 2.027-.891 3.149 1.466-.024 2.813-1.044 3.07-1.25l.319-.255z"/>
        <path d="M6.41 14.167c-.465 0-.842-.036-1.133-.11-.29-.072-.491-.146-.602-.222-.028-.028-.038-.092-.031-.192.006-.1.022-.204.047-.311.024-.107.055-.204.093-.285.038-.083.074-.122.109-.115.18.063.376.123.587.182.21.058.48.088.804.088.333 0 .615-.048.847-.145a.522.522 0 0 0 .348-.52.668.668 0 0 0-.228-.524c-.153-.135-.426-.28-.82-.43a5.86 5.86 0 0 1-.609-.277c-.19-.1-.358-.218-.503-.353a1.459 1.459 0 0 1-.343-.482 1.624 1.624 0 0 1-.125-.665c0-.208.04-.405.12-.592.079-.187.202-.348.368-.483.166-.135.38-.243.64-.322.259-.08.569-.12.929-.12.235 0 .43.006.587.016.155.01.283.024.384.042.1.017.182.036.244.057.062.02.121.038.177.052.048.02.072.081.072.181a1.383 1.383 0 0 1-.155.623c-.049.087-.097.124-.146.11a6.18 6.18 0 0 0-.483-.114 2.976 2.976 0 0 0-.597-.063c-.395 0-.666.056-.815.166a.528.528 0 0 0-.223.447c0 .201.083.362.249.483.166.12.426.244.779.369.56.221.974.476 1.24.763.267.287.4.649.4 1.085 0 .326-.062.596-.186.811a1.402 1.402 0 0 1-.499.508 2.165 2.165 0 0 1-.711.266c-.267.05-.539.076-.816.076zM13.898 14.116c-.145 0-.24-.025-.285-.073-.046-.048-.068-.142-.068-.281v-3.635l-.64 1.044-.326.54c-.07.114-.111.182-.126.202-.013.021-.02.035-.02.042a2.537 2.537 0 0 1-.13.203c-.024.032-.074.046-.15.046h-.166c-.09 0-.15-.015-.177-.046a1.247 1.247 0 0 1-.125-.203l-1.06-1.807v3.677c0 .09-.015.162-.046.214-.03.052-.112.077-.244.077H9.9a.64.64 0 0 1-.254-.046c-.073-.031-.11-.133-.11-.307V8.777c0-.138.026-.23.078-.275.052-.045.127-.068.224-.068h.519c.076 0 .14.01.192.032.052.02.105.072.161.155l1.381 2.202 1.382-2.18a.362.362 0 0 1 .322-.208h.572c.131 0 .207.027.228.082a.84.84 0 0 1 .031.27v5.027a.48.48 0 0 1-.041.229c-.028.049-.108.073-.239.073h-.447zM17.357 14.167c-.465 0-.841-.036-1.132-.11-.29-.072-.492-.146-.602-.222-.028-.028-.039-.092-.032-.192.007-.1.022-.204.047-.311.024-.107.055-.204.093-.285.038-.084.074-.122.11-.115.18.063.375.123.586.182.21.059.479.088.805.088.332 0 .614-.048.846-.145a.523.523 0 0 0 .349-.52.667.667 0 0 0-.23-.524c-.152-.135-.425-.28-.82-.43a5.89 5.89 0 0 1-.608-.277c-.19-.1-.358-.218-.504-.353a1.463 1.463 0 0 1-.342-.482 1.62 1.62 0 0 1-.125-.665c0-.208.04-.405.12-.592.079-.187.202-.348.368-.483.166-.135.379-.243.639-.322.26-.08.57-.12.93-.12.235 0 .43.006.586.016.156.01.284.024.385.042.1.017.181.036.244.057.062.02.121.038.177.052.048.02.072.081.072.181 0 .1-.014.208-.042.322a1.194 1.194 0 0 1-.113.301c-.049.087-.098.124-.146.11a6.202 6.202 0 0 0-.483-.114 2.979 2.979 0 0 0-.597-.063c-.395 0-.666.056-.815.166a.528.528 0 0 0-.224.447c0 .201.084.362.25.483.166.12.426.244.779.369.56.221.975.476 1.241.763.266.287.4.649.4 1.085 0 .326-.062.596-.187.811a1.402 1.402 0 0 1-.498.508 2.165 2.165 0 0 1-.712.266 4.34 4.34 0 0 1-.815.076z"/>
    </g>
</svg>
