<svg xmlns="http://www.w3.org/2000/svg" width="25" height="25" viewBox="0 0 25 25">
    <g fill="#1889F0" fill-rule="nonzero">
        <path d="M6.592 0c-1.629 0-2.93 1.367-2.93 2.979a2.933 2.933 0 0 0 2.93 2.93 2.933 2.933 0 0 0 2.93-2.93C9.521 1.366 8.218 0 6.591 0zm0 4.443A1.467 1.467 0 0 1 5.127 2.98c0-.821.67-1.514 1.465-1.514.794 0 1.465.693 1.465 1.514 0 .807-.657 1.464-1.465 1.464z"/>
        <path d="M22.803 0H12.45a2.2 2.2 0 0 0-2.197 2.197v4.999l-.644-.644a2.183 2.183 0 0 0-1.553-.644H3.662A3.666 3.666 0 0 0 0 9.57v4.395a2.2 2.2 0 0 0 2.93 2.072v6.766A2.2 2.2 0 0 0 5.127 25c.562 0 1.076-.212 1.465-.56.389.348.902.56 1.465.56a2.2 2.2 0 0 0 2.197-2.197v-9.695c.56.197 1.18.16 1.715-.107l2.466-1.233h8.368A2.2 2.2 0 0 0 25 9.57V2.197A2.2 2.2 0 0 0 22.803 0zm-8.56 10.226l-2.928 1.464a.732.732 0 0 1-.847-.137l-.429-.43c-.452-.452-1.248-.144-1.25.517v11.162a.733.733 0 0 1-1.465 0V15.43a.732.732 0 0 0-1.465 0v7.373a.733.733 0 0 1-1.465 0v-8.838V9.57a.732.732 0 0 0-1.464 0v4.395a.733.733 0 0 1-1.465 0V9.57a2.2 2.2 0 0 1 2.197-2.197h4.395c.195 0 .379.076.517.215l2.183 2.183a.732.732 0 0 0 .846.137l1.986-.993a.732.732 0 1 1 .655 1.31zm9.292-.656a.733.733 0 0 1-.732.733h-6.816l.014-.038c.105-.316.137-.645.097-.967l4.005-2.002a.732.732 0 1 0-.655-1.31l-4.005 2.002a2.195 2.195 0 0 0-2.51-.383l-1.214.607V2.197c0-.404.328-.732.732-.732h10.352c.404 0 .732.328.732.732V9.57z"/>
    </g>
</svg>
