<svg xmlns="http://www.w3.org/2000/svg" width="44" height="30" viewBox="0 0 44 30">
    <g fill="none" fill-rule="evenodd">
        <path fill="#FFF" fill-rule="nonzero" d="M28.242 16.03v-2.787a.879.879 0 0 0-.879-.88c-1.815 0-3.508.154-5.108.467a7.935 7.935 0 0 0-3.3-1.91 6.141 6.141 0 0 0 2.197-4.709c0-3.424-2.76-6.21-6.152-6.21-3.392 0-6.152 2.786-6.152 6.21 0 1.888.854 3.579 2.196 4.708a7.937 7.937 0 0 0-3.3 1.91c-1.599-.312-3.292-.465-5.107-.465a.879.879 0 0 0-.88.878v2.788A2.64 2.64 0 0 0 0 18.516v1.758a2.64 2.64 0 0 0 1.758 2.485v2.788c0 .486.393.88.879.88 4.595 0 8.369 1.088 11.875 3.426.294.196.681.196.976 0 3.506-2.338 7.28-3.427 11.875-3.427a.879.879 0 0 0 .88-.879V22.76A2.64 2.64 0 0 0 30 20.274v-1.758a2.64 2.64 0 0 0-1.758-2.486zM10.605 6.211c0-2.455 1.972-4.453 4.395-4.453 2.423 0 4.394 1.998 4.394 4.453A4.4 4.4 0 0 1 15 10.606a4.4 4.4 0 0 1-4.395-4.395zM2.637 21.153a.88.88 0 0 1-.88-.88v-1.757a.88.88 0 0 1 1.759 0v1.758a.88.88 0 0 1-.88.879zm11.484 6.391c-3.19-1.824-6.614-2.746-10.605-2.863v-1.922a2.64 2.64 0 0 0 1.757-2.485v-1.758a2.64 2.64 0 0 0-1.757-2.486v-1.896c4.13.118 7.449 1.09 10.605 3.1v10.31zM15 15.712a20.888 20.888 0 0 0-5.113-2.351 6.165 6.165 0 0 1 3.355-.997h3.516c1.199 0 2.365.353 3.355.997A20.887 20.887 0 0 0 15 15.711zm11.484 8.969c-3.99.117-7.415 1.039-10.605 2.864v-10.31c3.156-2.01 6.475-2.983 10.605-3.101v1.896a2.64 2.64 0 0 0-1.757 2.486v1.758a2.64 2.64 0 0 0 1.757 2.485v1.922zm1.758-4.407a.88.88 0 0 1-1.758 0v-1.758a.88.88 0 0 1 1.758 0v1.758z"/>
        <path fill="#FFF" stroke="#E47B0B" d="M25.553 29.5a.498.498 0 0 1-.354-.146l8.368-19.193a.498.498 0 0 1 .906-.008l8.893 18.632a.498.498 0 0 1-.156.618l-17.657.097z"/>
        <path fill="#E47B0B" fill-rule="nonzero" d="M33 16h2v8h-2z"/>
    </g>
</svg>
