<svg xmlns="http://www.w3.org/2000/svg" width="25" height="27" viewBox="0 0 25 27">
    <g fill="#18B9F0" fill-rule="nonzero">
        <path d="M6.63 22.642a.802.802 0 0 1-.564-.23 6.864 6.864 0 0 1 0-9.8.807.807 0 0 1 1.13 0 .778.778 0 0 1 0 1.113 5.305 5.305 0 0 0 0 7.573.778.778 0 0 1 0 1.113.802.802 0 0 1-.565.23zM9.593 20.283a.78.78 0 0 1-.555-.231 3.529 3.529 0 0 1 0-4.962.78.78 0 0 1 1.11 0 .793.793 0 0 1 0 1.116 1.94 1.94 0 0 0 0 2.73.793.793 0 0 1 0 1.116.78.78 0 0 1-.555.231z"/>
        <path d="M3.573 25.118a.786.786 0 0 1-.558-.232c-4.02-4.034-4.02-10.597 0-14.63a.788.788 0 0 1 1.117 0 .795.795 0 0 1 0 1.12c-3.404 3.416-3.404 8.973 0 12.389a.795.795 0 0 1-.559 1.353zM24.207 27.005a.793.793 0 0 1-.723-.466l-1.069-2.362a1.008 1.008 0 0 0-.936-.592c-1.408.025-3.137.05-4.02.033-.948-.018-1.501-.42-1.798-.754-.412-.463-.6-1.095-.532-1.78.04-.398-.068-.533-.282-.802-.162-.204-.364-.457-.46-.819-.148-.548.067-1.145.549-1.522a.813.813 0 0 1 .067-.047l1.593-1-2.381-.901a1.384 1.384 0 0 1-.826-1.534l.308-1.613a.602.602 0 0 0-.102-.467.605.605 0 0 0-.408-.25l-1.568-.23a1.313 1.313 0 0 1-.941-1.963l2.987-5.06c.455-.77.634-1.68.505-2.564L13.965.905a.793.793 0 1 1 1.57-.228l.204 1.407a5.527 5.527 0 0 1-.707 3.595l-2.784 4.714 1.17.171c.597.088 1.119.407 1.47.898.35.491.48 1.088.367 1.68l-.277 1.448 2.677 1.013c.471.178.796.6.846 1.102a1.31 1.31 0 0 1-.612 1.247l-1.912 1.2c.033.047.075.1.112.146.27.34.722.908.618 1.943-.014.14-.014.4.14.573.157.176.437.218.644.222.856.017 2.566-.008 3.96-.033a2.595 2.595 0 0 1 2.41 1.523l1.069 2.362a.79.79 0 0 1-.723 1.117z"/>
    </g>
</svg>
